<mxfile host="app.diagrams.net" modified="2023-09-13T10:16:34.556Z" agent="Mozilla/5.0 (Windows NT 10.0; Win64; x64) AppleWebKit/537.36 (KHTML, like Gecko) Chrome/116.0.0.0 Safari/537.36" etag="GZaQhNTiEcG5eDC9qDMa" version="21.7.1" type="github">
  <diagram name="페이지-1" id="38RCOT7tDdzDfQq4H2_8">
    <mxGraphModel dx="683" dy="357" grid="0" gridSize="10" guides="1" tooltips="1" connect="1" arrows="1" fold="1" page="1" pageScale="1" pageWidth="827" pageHeight="1169" math="0" shadow="0">
      <root>
        <mxCell id="0" />
        <mxCell id="1" parent="0" />
        <mxCell id="QHnMNbcKQs4c_G6YjsHj-2" value="" style="rounded=0;whiteSpace=wrap;html=1;fontFamily=BinggraeMelona-Bold;fontStyle=1;fontSource=https%3A%2F%2Fcdn.jsdelivr.net%2Fgh%2Fprojectnoonnu%2Fnoonfonts_twelve%401.0%2FBinggraeMelona-Bold.woff;" vertex="1" parent="1">
          <mxGeometry x="160" y="200" width="440" height="80" as="geometry" />
        </mxCell>
        <mxCell id="QHnMNbcKQs4c_G6YjsHj-3" value="Eden" style="rounded=0;whiteSpace=wrap;html=1;fillColor=#ffe6cc;strokeColor=#d79b00;fontFamily=BinggraeMelona-Bold;fontStyle=1;fontSource=https%3A%2F%2Fcdn.jsdelivr.net%2Fgh%2Fprojectnoonnu%2Fnoonfonts_twelve%401.0%2FBinggraeMelona-Bold.woff;" vertex="1" parent="1">
          <mxGeometry x="120" y="200" width="70" height="80" as="geometry" />
        </mxCell>
        <mxCell id="QHnMNbcKQs4c_G6YjsHj-4" value="Suvival 0" style="rounded=0;whiteSpace=wrap;html=1;fillColor=#fff2cc;strokeColor=#d6b656;fontFamily=BinggraeMelona-Bold;fontStyle=1;fontSource=https%3A%2F%2Fcdn.jsdelivr.net%2Fgh%2Fprojectnoonnu%2Fnoonfonts_twelve%401.0%2FBinggraeMelona-Bold.woff;" vertex="1" parent="1">
          <mxGeometry x="190" y="200" width="60" height="80" as="geometry" />
        </mxCell>
        <mxCell id="QHnMNbcKQs4c_G6YjsHj-5" value="Suvival 1" style="rounded=0;whiteSpace=wrap;html=1;fillColor=#fff2cc;strokeColor=#d6b656;fontFamily=BinggraeMelona-Bold;fontStyle=1;fontSource=https%3A%2F%2Fcdn.jsdelivr.net%2Fgh%2Fprojectnoonnu%2Fnoonfonts_twelve%401.0%2FBinggraeMelona-Bold.woff;" vertex="1" parent="1">
          <mxGeometry x="250" y="200" width="60" height="80" as="geometry" />
        </mxCell>
        <mxCell id="QHnMNbcKQs4c_G6YjsHj-6" value="Old" style="rounded=0;whiteSpace=wrap;html=1;fillColor=#d5e8d4;strokeColor=#82b366;fontFamily=BinggraeMelona-Bold;fontStyle=1;fontSource=https%3A%2F%2Fcdn.jsdelivr.net%2Fgh%2Fprojectnoonnu%2Fnoonfonts_twelve%401.0%2FBinggraeMelona-Bold.woff;" vertex="1" parent="1">
          <mxGeometry x="310" y="200" width="190" height="80" as="geometry" />
        </mxCell>
        <mxCell id="QHnMNbcKQs4c_G6YjsHj-7" value="Metaspace" style="rounded=0;whiteSpace=wrap;html=1;fillColor=#e1d5e7;strokeColor=#9673a6;fontFamily=BinggraeMelona-Bold;fontStyle=1;fontSource=https%3A%2F%2Fcdn.jsdelivr.net%2Fgh%2Fprojectnoonnu%2Fnoonfonts_twelve%401.0%2FBinggraeMelona-Bold.woff;" vertex="1" parent="1">
          <mxGeometry x="500" y="200" width="100" height="80" as="geometry" />
        </mxCell>
        <mxCell id="QHnMNbcKQs4c_G6YjsHj-9" value="" style="shape=curlyBracket;whiteSpace=wrap;html=1;rounded=1;flipH=1;labelPosition=right;verticalLabelPosition=middle;align=left;verticalAlign=middle;rotation=90;fillColor=#ffe6cc;strokeColor=#d79b00;" vertex="1" parent="1">
          <mxGeometry x="204.5" y="196.5" width="20" height="189" as="geometry" />
        </mxCell>
        <mxCell id="QHnMNbcKQs4c_G6YjsHj-10" value="" style="shape=curlyBracket;whiteSpace=wrap;html=1;rounded=1;flipH=1;labelPosition=right;verticalLabelPosition=middle;align=left;verticalAlign=middle;rotation=90;fillColor=#dae8fc;strokeColor=#6c8ebf;" vertex="1" parent="1">
          <mxGeometry x="395" y="196.5" width="20" height="189" as="geometry" />
        </mxCell>
        <mxCell id="QHnMNbcKQs4c_G6YjsHj-11" value="&lt;font data-font-src=&quot;https://cdn.jsdelivr.net/gh/projectnoonnu/noonfonts_four@1.2/JalnanOTF00.woff&quot; face=&quot;yg-jalnan&quot; style=&quot;font-size: 12px;&quot;&gt;&lt;font style=&quot;font-weight: normal; font-size: 12px;&quot; data-font-src=&quot;https://cdn.jsdelivr.net/gh/projectnoonnu/noonfonts_four@1.2/JalnanOTF00.woff&quot;&gt;Young&amp;nbsp;&lt;/font&gt;Generation&lt;/font&gt;" style="text;strokeColor=none;fillColor=none;html=1;fontSize=24;fontStyle=1;verticalAlign=middle;align=center;fontColor=#3DA3FD;" vertex="1" parent="1">
          <mxGeometry x="164.5" y="285" width="100" height="40" as="geometry" />
        </mxCell>
        <mxCell id="QHnMNbcKQs4c_G6YjsHj-12" value="&lt;font data-font-src=&quot;https://cdn.jsdelivr.net/gh/projectnoonnu/noonfonts_four@1.2/JalnanOTF00.woff&quot; face=&quot;yg-jalnan&quot; style=&quot;font-size: 12px;&quot;&gt;&lt;font style=&quot;font-weight: normal; font-size: 12px;&quot; data-font-src=&quot;https://cdn.jsdelivr.net/gh/projectnoonnu/noonfonts_four@1.2/JalnanOTF00.woff&quot;&gt;Old&amp;nbsp;&lt;/font&gt;Generation&lt;/font&gt;" style="text;strokeColor=none;fillColor=none;html=1;fontSize=24;fontStyle=1;verticalAlign=middle;align=center;fontColor=#ee562f;" vertex="1" parent="1">
          <mxGeometry x="355" y="285" width="100" height="40" as="geometry" />
        </mxCell>
        <mxCell id="QHnMNbcKQs4c_G6YjsHj-14" value="&lt;font color=&quot;#000000&quot; face=&quot;yg-jalnan&quot; style=&quot;font-size: 25px;&quot;&gt;&lt;span style=&quot;font-size: 25px; font-weight: 400;&quot;&gt;JVM Stack&lt;/span&gt;&lt;/font&gt;" style="text;strokeColor=none;fillColor=none;html=1;fontSize=25;fontStyle=1;verticalAlign=middle;align=center;fontColor=#ee562f;" vertex="1" parent="1">
          <mxGeometry x="271" y="138" width="175" height="40" as="geometry" />
        </mxCell>
      </root>
    </mxGraphModel>
  </diagram>
</mxfile>
